<svg width="414" height="89" viewBox="0 0 414 89" fill="none" xmlns="http://www.w3.org/2000/svg">
<path d="M31.1077 70V18.88H40.4677V40.192H61.5637V18.88H70.9237V70H61.5637V48.328H40.4677V70H31.1077ZM78.2598 31.84H87.1878L97.4118 60.352L107.276 31.84H116.204L101.012 74.032C99.3558 78.712 96.2598 80.8 91.1478 80.8H84.8838V73.744H89.5638C91.7958 73.744 92.8758 73.024 93.6678 71.224L94.7478 68.416H92.0838L78.2598 31.84ZM122.778 80.8V31.84H131.562L131.778 37.456C133.866 33.28 137.898 30.976 143.226 30.976C154.17 30.976 159.642 39.904 159.642 50.92C159.642 61.936 154.17 70.864 143.226 70.864C138.114 70.864 134.226 68.704 131.994 64.6V80.8H122.778ZM131.346 50.92C131.346 57.472 134.298 63.448 140.706 63.448C147.186 63.448 149.994 57.616 149.994 50.92C149.994 44.296 147.114 38.392 140.706 38.392C134.226 38.392 131.346 44.44 131.346 50.92ZM165.55 50.92C165.55 38.824 173.038 30.976 184.486 30.976C194.35 30.976 202.27 37.744 202.414 51.208V53.44H175.27C175.702 59.776 179.014 63.592 184.486 63.592C187.942 63.592 191.11 61.576 192.478 58.264L201.91 58.984C199.606 66.256 192.694 70.864 184.486 70.864C173.038 70.864 165.55 63.016 165.55 50.92ZM175.342 47.32H192.91C192.19 40.768 188.59 38.248 184.486 38.248C179.374 38.248 176.062 41.632 175.342 47.32ZM209.895 31.84H218.535L218.751 39.328C220.191 34.288 223.071 31.84 227.967 31.84H231.495V38.968H227.895C221.775 38.968 219.111 42.136 219.111 48.256V70H209.895V31.84ZM272.329 70H263.833L263.689 63.952C261.601 68.92 257.353 70.864 252.385 70.864C244.105 70.864 239.497 64.96 239.497 56.392V31.84H248.713V53.368C248.713 59.848 250.441 63.376 255.265 63.376C260.233 63.376 263.113 59.848 263.113 53.368V31.84H272.329V70ZM304.08 44.08C303.36 40.192 299.976 37.888 296.304 37.888C292.704 37.888 289.896 39.76 289.968 42.856C290.04 45.952 293.856 47.248 297.672 47.968C308.112 49.768 313.872 52.504 313.872 59.776C313.872 67.336 306.528 70.864 297.6 70.864C287.16 70.864 280.104 65.968 279.456 57.904L288.888 57.4C289.608 61.432 292.632 63.88 297.384 63.88C300.552 63.88 304.368 62.728 304.296 59.56C304.296 55.888 300.048 55.312 296.16 54.448C286.728 52.576 280.392 50.128 280.392 43C280.392 35.512 286.584 30.976 296.808 30.976C305.736 30.976 312.144 35.8 313.44 43.648L304.08 44.08ZM319.745 50.92C319.745 38.824 327.233 30.976 338.681 30.976C348.545 30.976 356.465 37.744 356.609 51.208V53.44H329.465C329.897 59.776 333.209 63.592 338.681 63.592C342.137 63.592 345.305 61.576 346.673 58.264L356.105 58.984C353.801 66.256 346.889 70.864 338.681 70.864C327.233 70.864 319.745 63.016 319.745 50.92ZM329.537 47.32H347.105C346.385 40.768 342.785 38.248 338.681 38.248C333.569 38.248 330.257 41.632 329.537 47.32ZM364.091 31.84H372.731L372.947 39.328C374.387 34.288 377.267 31.84 382.163 31.84H385.691V38.968H382.091C375.971 38.968 373.307 42.136 373.307 48.256V70H364.091V31.84Z" fill="#D4D4D4"/>
</svg>
